# MagicaVoxel @ ephtracy

# material
mtllib bat_Head.mtl
usemtl palette

# normals
vn -1 0 0
vn 1 0 0
vn 0 0 1
vn 0 0 -1
vn 0 -1 0
vn 0 1 0

# texcoords
vt 0.0566406 0.5
vt 0.912109 0.5
vt 0.951172 0.5

# verts
v -2 5 -0
v -2 5 -1
v -2 6 3
v -2 6 -0
v -2 7 -0
v -2 7 -1
v -2 8 -0
v -2 8 -1
v -2 9 -0
v -2 9 -1
v -2 10 3
v -2 10 -0
v -2 11 -0
v -2 11 -1
v 1 5 -0
v 1 5 -1
v 1 6 -0
v 1 6 -1
v 1 10 -0
v 1 10 -1
v 1 11 -0
v 1 11 -1
v -1 5 -0
v -1 5 -1
v -1 6 -0
v -1 6 -1
v -1 10 -0
v -1 10 -1
v -1 11 -0
v -1 11 -1
v 2 5 -0
v 2 5 -1
v 2 6 3
v 2 6 -0
v 2 7 -0
v 2 7 -1
v 2 8 -0
v 2 8 -1
v 2 9 -0
v 2 9 -1
v 2 10 3
v 2 10 -0
v 2 11 -0
v 2 11 -1
v -2 6 3
v -2 10 3
v 2 6 3
v 2 10 3
v -2 5 -0
v -2 6 -0
v -2 10 -0
v -2 11 -0
v -1 5 -0
v -1 6 -0
v -1 10 -0
v -1 11 -0
v 1 5 -0
v 1 6 -0
v 1 10 -0
v 1 11 -0
v 2 5 -0
v 2 6 -0
v 2 10 -0
v 2 11 -0
v -2 5 -1
v -2 7 -1
v -2 8 -1
v -2 9 -1
v -2 11 -1
v -1 5 -1
v -1 6 -1
v -1 7 -1
v -1 8 -1
v -1 9 -1
v -1 10 -1
v -1 11 -1
v 1 5 -1
v 1 6 -1
v 1 7 -1
v 1 8 -1
v 1 9 -1
v 1 10 -1
v 1 11 -1
v 2 5 -1
v 2 7 -1
v 2 8 -1
v 2 9 -1
v 2 11 -1
v -2 5 -0
v -1 5 -0
v 1 5 -0
v 2 5 -0
v -2 5 -1
v -1 5 -1
v 1 5 -1
v 2 5 -1
v -2 6 3
v 2 6 3
v -2 6 -0
v -1 6 -0
v 1 6 -0
v 2 6 -0
v -1 6 -1
v 1 6 -1
v -2 10 3
v 2 10 3
v -2 10 -0
v -1 10 -0
v 1 10 -0
v 2 10 -0
v -1 10 -1
v 1 10 -1
v -2 11 -0
v -1 11 -0
v 1 11 -0
v 2 11 -0
v -2 11 -1
v -1 11 -1
v 1 11 -1
v 2 11 -1

# faces
f 4/2/1 2/2/1 1/2/1
f 5/2/1 2/2/1 4/2/1
f 5/3/1 4/3/1 3/3/1
f 6/2/1 2/2/1 5/2/1
f 7/3/1 5/3/1 3/3/1
f 7/3/1 6/3/1 5/3/1
f 8/3/1 6/3/1 7/3/1
f 9/3/1 7/3/1 3/3/1
f 9/1/1 8/1/1 7/1/1
f 10/1/1 8/1/1 9/1/1
f 11/3/1 9/3/1 3/3/1
f 11/3/1 10/3/1 9/3/1
f 12/3/1 10/3/1 11/3/1
f 13/3/1 10/3/1 12/3/1
f 14/3/1 10/3/1 13/3/1
f 17/2/1 16/2/1 15/2/1
f 18/2/1 16/2/1 17/2/1
f 21/3/1 20/3/1 19/3/1
f 22/3/1 20/3/1 21/3/1
f 23/2/2 24/2/2 25/2/2
f 25/2/2 24/2/2 26/2/2
f 27/3/2 28/3/2 29/3/2
f 29/3/2 28/3/2 30/3/2
f 31/2/2 32/2/2 34/2/2
f 34/2/2 32/2/2 35/2/2
f 33/3/2 34/3/2 35/3/2
f 35/2/2 32/2/2 36/2/2
f 33/3/2 35/3/2 37/3/2
f 35/3/2 36/3/2 37/3/2
f 37/3/2 36/3/2 38/3/2
f 33/3/2 37/3/2 39/3/2
f 37/1/2 38/1/2 39/1/2
f 39/1/2 38/1/2 40/1/2
f 33/3/2 39/3/2 41/3/2
f 39/3/2 40/3/2 41/3/2
f 41/3/2 40/3/2 42/3/2
f 42/3/2 40/3/2 43/3/2
f 43/3/2 40/3/2 44/3/2
f 47/3/3 46/3/3 45/3/3
f 48/3/3 46/3/3 47/3/3
f 53/2/3 50/2/3 49/2/3
f 54/2/3 50/2/3 53/2/3
f 55/3/3 52/3/3 51/3/3
f 56/3/3 52/3/3 55/3/3
f 61/2/3 58/2/3 57/2/3
f 62/2/3 58/2/3 61/2/3
f 63/3/3 60/3/3 59/3/3
f 64/3/3 60/3/3 63/3/3
f 65/2/4 66/2/4 70/2/4
f 70/2/4 66/2/4 71/2/4
f 66/3/4 67/3/4 72/3/4
f 71/2/4 66/2/4 72/2/4
f 67/1/4 68/1/4 73/1/4
f 72/3/4 67/3/4 73/3/4
f 68/3/4 69/3/4 74/3/4
f 73/1/4 68/1/4 74/1/4
f 74/3/4 69/3/4 75/3/4
f 75/3/4 69/3/4 76/3/4
f 72/3/4 73/3/4 78/3/4
f 74/3/4 75/3/4 78/3/4
f 73/3/4 74/3/4 78/3/4
f 71/3/4 72/3/4 78/3/4
f 78/3/4 75/3/4 79/3/4
f 79/3/4 75/3/4 80/3/4
f 80/3/4 75/3/4 81/3/4
f 81/3/4 75/3/4 82/3/4
f 77/2/4 78/2/4 84/2/4
f 78/2/4 79/2/4 84/2/4
f 79/3/4 80/3/4 85/3/4
f 84/2/4 79/2/4 85/2/4
f 80/1/4 81/1/4 86/1/4
f 85/3/4 80/3/4 86/3/4
f 82/3/4 83/3/4 87/3/4
f 86/1/4 81/1/4 87/1/4
f 81/3/4 82/3/4 87/3/4
f 87/3/4 83/3/4 88/3/4
f 93/2/5 90/2/5 89/2/5
f 94/2/5 90/2/5 93/2/5
f 95/2/5 92/2/5 91/2/5
f 96/2/5 92/2/5 95/2/5
f 99/3/5 98/3/5 97/3/5
f 100/3/5 98/3/5 99/3/5
f 101/3/5 98/3/5 100/3/5
f 102/3/5 98/3/5 101/3/5
f 103/3/5 101/3/5 100/3/5
f 104/3/5 101/3/5 103/3/5
f 105/3/6 106/3/6 107/3/6
f 107/3/6 106/3/6 108/3/6
f 108/3/6 106/3/6 109/3/6
f 109/3/6 106/3/6 110/3/6
f 108/3/6 109/3/6 111/3/6
f 111/3/6 109/3/6 112/3/6
f 113/3/6 114/3/6 117/3/6
f 117/3/6 114/3/6 118/3/6
f 115/3/6 116/3/6 119/3/6
f 119/3/6 116/3/6 120/3/6
