# MagicaVoxel @ ephtracy

# material
mtllib guard.mtl
usemtl palette

# normals
vn -1 0 0
vn 1 0 0
vn 0 0 1
vn 0 0 -1
vn 0 -1 0
vn 0 1 0

# texcoords
vt 0.0800781 0.5
vt 0.169922 0.5
vt 0.482422 0.5
vt 0.716797 0.5
vt 0.720703 0.5
vt 0.771484 0.5
vt 0.912109 0.5
vt 0.923828 0.5
vt 0.951172 0.5

# verts
v -4 5 1
v -4 5 -0
v -4 6 3
v -4 6 2
v -4 9 -0
v -4 9 -1
v -4 10 2
v -4 10 1
v -4 10 -1
v -4 10 -2
v -4 12 3
v -4 12 -2
v -3 4 3
v -3 4 2
v -3 6 3
v -3 6 2
v -3 12 2
v -3 12 -2
v -3 13 2
v -3 13 -2
v -2 0 2
v -2 0 -3
v -2 1 2
v -2 1 -2
v -2 1 -3
v -2 3 3
v -2 3 2
v -2 4 3
v -2 4 2
v -2 7 2
v -2 10 2
v -2 10 -2
v -2 11 -2
v -2 11 -3
v -2 13 1
v -2 13 -0
v -2 13 -2
v -2 13 -3
v -2 14 -0
v -2 14 -2
v -2 14 -3
v -2 15 1
v -2 15 -3
v -1 15 1
v -1 15 -3
v -1 16 1
v -1 16 -3
v 2 9 -4
v 2 9 -5
v 2 10 -4
v 2 10 -5
v 3 8 1
v 3 8 -5
v 3 9 -1
v 3 9 -4
v 3 9 -5
v 3 10 1
v 3 10 -1
v 3 10 -4
v 3 10 -5
v 3 15 -4
v 3 15 -5
v -3 5 1
v -3 5 -0
v -3 9 -0
v -3 9 -1
v -3 10 1
v -3 10 -1
v 1 15 1
v 1 15 -3
v 1 16 1
v 1 16 -3
v 2 0 2
v 2 0 -3
v 2 1 2
v 2 1 -2
v 2 1 -3
v 2 3 3
v 2 3 2
v 2 4 3
v 2 4 2
v 2 7 2
v 2 10 2
v 2 10 -2
v 2 11 -2
v 2 11 -3
v 2 13 1
v 2 13 -0
v 2 13 -2
v 2 13 -3
v 2 14 -0
v 2 14 -2
v 2 14 -3
v 2 15 1
v 2 15 -3
v 3 4 3
v 3 4 2
v 3 6 3
v 3 6 2
v 3 12 2
v 3 12 -2
v 3 13 2
v 3 13 -2
v 4 6 3
v 4 6 2
v 4 8 1
v 4 8 -5
v 4 9 -1
v 4 9 -4
v 4 9 -5
v 4 10 2
v 4 10 1
v 4 10 -1
v 4 10 -2
v 4 10 -4
v 4 10 -5
v 4 12 3
v 4 12 -2
v 4 15 -4
v 4 15 -5
v 5 9 -4
v 5 9 -5
v 5 10 -4
v 5 10 -5
v -4 6 3
v -4 12 3
v -3 4 3
v -3 6 3
v -3 7 3
v -3 12 3
v -2 3 3
v -2 4 3
v -2 5 3
v -2 7 3
v -1 4 3
v -1 5 3
v 1 4 3
v 1 5 3
v 2 3 3
v 2 4 3
v 2 5 3
v 2 7 3
v 3 4 3
v 3 6 3
v 3 7 3
v 3 12 3
v 4 6 3
v 4 12 3
v -3 12 2
v -3 13 2
v -2 0 2
v -2 1 2
v -2 3 2
v 2 0 2
v 2 1 2
v 2 3 2
v 3 12 2
v 3 13 2
v -4 5 1
v -4 10 1
v -3 5 1
v -3 10 1
v -2 13 1
v -2 15 1
v -1 15 1
v -1 16 1
v 1 15 1
v 1 16 1
v 2 13 1
v 2 15 1
v 3 8 1
v 3 10 1
v 4 8 1
v 4 10 1
v 2 9 -4
v 2 10 -4
v 3 9 -4
v 3 10 -4
v 3 15 -4
v 4 9 -4
v 4 10 -4
v 4 15 -4
v 5 9 -4
v 5 10 -4
v -4 6 2
v -4 10 2
v -3 4 2
v -3 6 2
v -3 7 2
v -3 10 2
v -2 4 2
v -2 7 2
v -2 10 2
v 2 4 2
v 2 7 2
v 2 10 2
v 3 4 2
v 3 6 2
v 3 7 2
v 3 10 2
v 4 6 2
v 4 10 2
v -4 5 -0
v -4 9 -0
v -3 5 -0
v -3 9 -0
v -4 9 -1
v -4 10 -1
v -3 9 -1
v -3 10 -1
v 3 9 -1
v 3 10 -1
v 4 9 -1
v 4 10 -1
v -4 10 -2
v -4 12 -2
v -3 12 -2
v -3 13 -2
v -2 1 -2
v -2 10 -2
v -2 11 -2
v -2 13 -2
v 2 1 -2
v 2 10 -2
v 2 11 -2
v 2 13 -2
v 3 12 -2
v 3 13 -2
v 4 10 -2
v 4 12 -2
v -2 0 -3
v -2 1 -3
v -2 11 -3
v -2 13 -3
v -2 14 -3
v -2 15 -3
v -1 13 -3
v -1 14 -3
v -1 15 -3
v -1 16 -3
v 1 13 -3
v 1 14 -3
v 1 15 -3
v 1 16 -3
v 2 0 -3
v 2 1 -3
v 2 11 -3
v 2 13 -3
v 2 14 -3
v 2 15 -3
v 2 9 -5
v 2 10 -5
v 3 8 -5
v 3 9 -5
v 3 10 -5
v 3 15 -5
v 4 8 -5
v 4 9 -5
v 4 10 -5
v 4 15 -5
v 5 9 -5
v 5 10 -5
v -2 0 2
v 2 0 2
v -2 0 -3
v 2 0 -3
v -2 3 3
v 2 3 3
v -2 3 2
v 2 3 2
v -3 4 3
v -2 4 3
v 2 4 3
v 3 4 3
v -3 4 2
v -2 4 2
v 2 4 2
v 3 4 2
v -4 5 1
v -3 5 1
v -4 5 -0
v -3 5 -0
v -4 6 3
v -3 6 3
v 3 6 3
v 4 6 3
v -4 6 2
v -3 6 2
v 3 6 2
v 4 6 2
v 3 8 1
v 4 8 1
v 3 8 -5
v 4 8 -5
v -4 9 -0
v -3 9 -0
v -4 9 -1
v -3 9 -1
v 2 9 -4
v 3 9 -4
v 4 9 -4
v 5 9 -4
v 2 9 -5
v 3 9 -5
v 4 9 -5
v 5 9 -5
v -4 10 2
v -3 10 2
v -2 10 2
v 2 10 2
v 3 10 2
v 4 10 2
v -4 10 1
v -3 10 1
v 3 10 1
v 4 10 1
v -4 10 -1
v -3 10 -1
v 3 10 -1
v 4 10 -1
v -4 10 -2
v -2 10 -2
v 2 10 -2
v 4 10 -2
v -2 11 -2
v 2 11 -2
v -2 11 -3
v 2 11 -3
v -2 1 -2
v 2 1 -2
v -2 1 -3
v 2 1 -3
v 3 9 -1
v 4 9 -1
v 3 9 -4
v 4 9 -4
v 2 10 -4
v 3 10 -4
v 4 10 -4
v 5 10 -4
v 2 10 -5
v 3 10 -5
v 4 10 -5
v 5 10 -5
v -4 12 3
v -3 12 3
v 3 12 3
v 4 12 3
v -3 12 2
v 3 12 2
v -4 12 -2
v -3 12 -2
v 3 12 -2
v 4 12 -2
v -3 13 2
v 3 13 2
v -2 13 1
v 2 13 1
v -2 13 -0
v 2 13 -0
v -3 13 -2
v -2 13 -2
v 2 13 -2
v 3 13 -2
v -2 15 1
v -1 15 1
v 1 15 1
v 2 15 1
v -2 15 -3
v -1 15 -3
v 1 15 -3
v 2 15 -3
v 3 15 -4
v 4 15 -4
v 3 15 -5
v 4 15 -5
v -1 16 1
v 1 16 1
v -1 16 -3
v 1 16 -3

# faces
f 5/1/1 2/1/1 1/1/1
f 7/5/1 4/5/1 3/5/1
f 8/1/1 6/1/1 5/1/1
f 8/1/1 5/1/1 1/1/1
f 9/1/1 6/1/1 8/1/1
f 11/5/1 7/5/1 3/5/1
f 11/5/1 10/5/1 9/5/1
f 11/5/1 9/5/1 8/5/1
f 11/5/1 8/5/1 7/5/1
f 12/5/1 10/5/1 11/5/1
f 15/5/1 14/5/1 13/5/1
f 16/5/1 14/5/1 15/5/1
f 19/5/1 18/5/1 17/5/1
f 20/5/1 18/5/1 19/5/1
f 23/9/1 22/9/1 21/9/1
f 24/9/1 22/9/1 23/9/1
f 25/9/1 22/9/1 24/9/1
f 27/5/1 24/5/1 23/5/1
f 28/5/1 27/5/1 26/5/1
f 29/5/1 24/5/1 27/5/1
f 29/5/1 27/5/1 28/5/1
f 30/5/1 24/5/1 29/5/1
f 31/5/1 24/5/1 30/5/1
f 32/5/1 24/5/1 31/5/1
f 37/1/1 34/1/1 33/1/1
f 38/1/1 34/1/1 37/1/1
f 39/2/1 36/2/1 35/2/1
f 39/1/1 37/1/1 36/1/1
f 40/6/1 38/6/1 37/6/1
f 40/1/1 37/1/1 39/1/1
f 41/6/1 38/6/1 40/6/1
f 42/2/1 39/2/1 35/2/1
f 42/2/1 40/2/1 39/2/1
f 42/2/1 41/2/1 40/2/1
f 43/2/1 41/2/1 42/2/1
f 46/2/1 45/2/1 44/2/1
f 47/2/1 45/2/1 46/2/1
f 50/3/1 49/3/1 48/3/1
f 51/3/1 49/3/1 50/3/1
f 54/1/1 53/1/1 52/1/1
f 55/1/1 53/1/1 54/1/1
f 56/1/1 53/1/1 55/1/1
f 57/1/1 54/1/1 52/1/1
f 58/1/1 54/1/1 57/1/1
f 61/7/1 60/7/1 59/7/1
f 62/7/1 60/7/1 61/7/1
f 63/1/2 64/1/2 65/1/2
f 63/1/2 65/1/2 67/1/2
f 65/1/2 66/1/2 67/1/2
f 67/1/2 66/1/2 68/1/2
f 69/2/2 70/2/2 71/2/2
f 71/2/2 70/2/2 72/2/2
f 73/9/2 74/9/2 75/9/2
f 75/9/2 74/9/2 76/9/2
f 76/9/2 74/9/2 77/9/2
f 75/5/2 76/5/2 79/5/2
f 78/5/2 79/5/2 80/5/2
f 79/5/2 76/5/2 81/5/2
f 80/5/2 79/5/2 81/5/2
f 81/5/2 76/5/2 82/5/2
f 82/5/2 76/5/2 83/5/2
f 83/5/2 76/5/2 84/5/2
f 85/1/2 86/1/2 89/1/2
f 89/1/2 86/1/2 90/1/2
f 87/2/2 88/2/2 91/2/2
f 88/1/2 89/1/2 91/1/2
f 89/6/2 90/6/2 92/6/2
f 91/1/2 89/1/2 92/1/2
f 92/6/2 90/6/2 93/6/2
f 87/2/2 91/2/2 94/2/2
f 91/2/2 92/2/2 94/2/2
f 92/2/2 93/2/2 94/2/2
f 94/2/2 93/2/2 95/2/2
f 96/5/2 97/5/2 98/5/2
f 98/5/2 97/5/2 99/5/2
f 100/5/2 101/5/2 102/5/2
f 102/5/2 101/5/2 103/5/2
f 106/1/2 107/1/2 108/1/2
f 108/1/2 107/1/2 109/1/2
f 109/1/2 107/1/2 110/1/2
f 104/5/2 105/5/2 111/5/2
f 106/1/2 108/1/2 112/1/2
f 112/1/2 108/1/2 113/1/2
f 104/5/2 111/5/2 117/5/2
f 111/5/2 112/5/2 117/5/2
f 113/5/2 114/5/2 117/5/2
f 112/5/2 113/5/2 117/5/2
f 117/5/2 114/5/2 118/5/2
f 115/7/2 116/7/2 119/7/2
f 119/7/2 116/7/2 120/7/2
f 121/3/2 122/3/2 123/3/2
f 123/3/2 122/3/2 124/3/2
f 128/5/3 126/5/3 125/5/3
f 129/5/3 126/5/3 128/5/3
f 130/5/3 126/5/3 129/5/3
f 132/5/3 128/5/3 127/5/3
f 132/5/3 129/5/3 128/5/3
f 133/5/3 129/5/3 132/5/3
f 134/4/3 130/4/3 129/4/3
f 134/5/3 129/5/3 133/5/3
f 135/5/3 133/5/3 132/5/3
f 135/5/3 132/5/3 131/5/3
f 136/4/3 134/4/3 133/4/3
f 136/5/3 133/5/3 135/5/3
f 137/5/3 135/5/3 131/5/3
f 137/4/3 136/4/3 135/4/3
f 138/4/3 134/4/3 136/4/3
f 138/4/3 136/4/3 137/4/3
f 139/5/3 137/5/3 131/5/3
f 139/5/3 138/5/3 137/5/3
f 140/5/3 138/5/3 139/5/3
f 141/4/3 134/4/3 138/4/3
f 141/5/3 138/5/3 140/5/3
f 142/4/3 130/4/3 134/4/3
f 142/4/3 134/4/3 141/4/3
f 143/5/3 141/5/3 140/5/3
f 143/5/3 142/5/3 141/5/3
f 144/5/3 142/5/3 143/5/3
f 145/4/3 130/4/3 142/4/3
f 145/5/3 142/5/3 144/5/3
f 146/4/3 130/4/3 145/4/3
f 147/5/3 145/5/3 144/5/3
f 147/5/3 146/5/3 145/5/3
f 148/5/3 146/5/3 147/5/3
f 154/9/3 152/9/3 151/9/3
f 155/5/3 153/5/3 152/5/3
f 155/9/3 152/9/3 154/9/3
f 156/5/3 153/5/3 155/5/3
f 157/5/3 150/5/3 149/5/3
f 158/5/3 150/5/3 157/5/3
f 161/1/3 160/1/3 159/1/3
f 162/1/3 160/1/3 161/1/3
f 165/2/3 164/2/3 163/2/3
f 167/2/3 165/2/3 163/2/3
f 167/2/3 166/2/3 165/2/3
f 168/2/3 166/2/3 167/2/3
f 169/2/3 167/2/3 163/2/3
f 170/2/3 167/2/3 169/2/3
f 173/1/3 172/1/3 171/1/3
f 174/1/3 172/1/3 173/1/3
f 177/3/3 176/3/3 175/3/3
f 178/3/3 176/3/3 177/3/3
f 180/3/3 178/3/3 177/3/3
f 181/7/3 179/7/3 178/7/3
f 181/3/3 178/3/3 180/3/3
f 182/7/3 179/7/3 181/7/3
f 183/3/3 181/3/3 180/3/3
f 184/3/3 181/3/3 183/3/3
f 185/5/4 186/5/4 188/5/4
f 188/5/4 186/5/4 189/5/4
f 189/5/4 186/5/4 190/5/4
f 187/5/4 188/5/4 191/5/4
f 188/5/4 189/5/4 191/5/4
f 189/4/4 190/4/4 192/4/4
f 191/5/4 189/5/4 192/5/4
f 192/4/4 190/4/4 193/4/4
f 194/5/4 195/5/4 197/5/4
f 197/5/4 195/5/4 198/5/4
f 195/4/4 196/4/4 199/4/4
f 198/5/4 195/5/4 199/5/4
f 199/4/4 196/4/4 200/4/4
f 198/5/4 199/5/4 201/5/4
f 199/5/4 200/5/4 201/5/4
f 201/5/4 200/5/4 202/5/4
f 203/1/4 204/1/4 205/1/4
f 205/1/4 204/1/4 206/1/4
f 207/1/4 208/1/4 209/1/4
f 209/1/4 208/1/4 210/1/4
f 211/1/4 212/1/4 213/1/4
f 213/1/4 212/1/4 214/1/4
f 215/5/4 216/5/4 217/5/4
f 215/5/4 217/5/4 220/5/4
f 217/5/4 218/5/4 220/5/4
f 220/5/4 218/5/4 221/5/4
f 221/5/4 218/5/4 222/5/4
f 219/5/4 220/5/4 223/5/4
f 220/5/4 221/5/4 223/5/4
f 223/5/4 221/5/4 224/5/4
f 224/5/4 221/5/4 225/5/4
f 225/5/4 226/5/4 227/5/4
f 224/5/4 225/5/4 227/5/4
f 227/5/4 226/5/4 228/5/4
f 224/5/4 227/5/4 229/5/4
f 229/5/4 227/5/4 230/5/4
f 233/1/4 234/1/4 237/1/4
f 234/6/4 235/6/4 237/6/4
f 235/2/4 236/2/4 238/2/4
f 237/6/4 235/6/4 238/6/4
f 238/2/4 236/2/4 239/2/4
f 233/1/4 237/1/4 241/1/4
f 237/1/4 238/1/4 241/1/4
f 239/2/4 240/2/4 242/2/4
f 241/1/4 238/1/4 242/1/4
f 238/2/4 239/2/4 242/2/4
f 242/2/4 240/2/4 243/2/4
f 243/2/4 240/2/4 244/2/4
f 231/9/4 232/9/4 245/9/4
f 245/9/4 232/9/4 246/9/4
f 233/1/4 241/1/4 247/1/4
f 241/6/4 242/6/4 248/6/4
f 247/1/4 241/1/4 248/1/4
f 242/2/4 243/2/4 249/2/4
f 248/6/4 242/6/4 249/6/4
f 249/2/4 243/2/4 250/2/4
f 251/3/4 252/3/4 254/3/4
f 254/3/4 252/3/4 255/3/4
f 253/1/4 254/1/4 257/1/4
f 254/3/4 255/3/4 258/3/4
f 257/1/4 254/1/4 258/1/4
f 255/7/4 256/7/4 259/7/4
f 258/3/4 255/3/4 259/3/4
f 259/7/4 256/7/4 260/7/4
f 258/3/4 259/3/4 261/3/4
f 261/3/4 259/3/4 262/3/4
f 265/9/5 264/9/5 263/9/5
f 266/9/5 264/9/5 265/9/5
f 269/5/5 268/5/5 267/5/5
f 270/5/5 268/5/5 269/5/5
f 275/5/5 272/5/5 271/5/5
f 276/5/5 272/5/5 275/5/5
f 277/5/5 274/5/5 273/5/5
f 278/5/5 274/5/5 277/5/5
f 281/1/5 280/1/5 279/1/5
f 282/1/5 280/1/5 281/1/5
f 287/5/5 284/5/5 283/5/5
f 288/5/5 284/5/5 287/5/5
f 289/5/5 286/5/5 285/5/5
f 290/5/5 286/5/5 289/5/5
f 293/1/5 292/1/5 291/1/5
f 294/1/5 292/1/5 293/1/5
f 297/1/5 296/1/5 295/1/5
f 298/1/5 296/1/5 297/1/5
f 303/3/5 300/3/5 299/3/5
f 304/3/5 300/3/5 303/3/5
f 305/3/5 302/3/5 301/3/5
f 306/3/5 302/3/5 305/3/5
f 313/5/5 308/5/5 307/5/5
f 313/5/5 309/5/5 308/5/5
f 314/5/5 309/5/5 313/5/5
f 315/5/5 312/5/5 311/5/5
f 315/5/5 311/5/5 310/5/5
f 316/5/5 312/5/5 315/5/5
f 318/5/5 309/5/5 314/5/5
f 319/5/5 315/5/5 310/5/5
f 321/5/5 318/5/5 317/5/5
f 322/5/5 309/5/5 318/5/5
f 322/5/5 318/5/5 321/5/5
f 323/5/5 320/5/5 319/5/5
f 323/5/5 319/5/5 310/5/5
f 324/5/5 320/5/5 323/5/5
f 327/1/5 326/1/5 325/1/5
f 328/1/5 326/1/5 327/1/5
f 329/9/6 330/9/6 331/9/6
f 331/9/6 330/9/6 332/9/6
f 333/1/6 334/1/6 335/1/6
f 335/1/6 334/1/6 336/1/6
f 337/3/6 338/3/6 341/3/6
f 341/3/6 338/3/6 342/3/6
f 339/3/6 340/3/6 343/3/6
f 343/3/6 340/3/6 344/3/6
f 345/5/6 346/5/6 349/5/6
f 346/4/6 347/4/6 349/4/6
f 347/5/6 348/5/6 350/5/6
f 349/4/6 347/4/6 350/4/6
f 345/5/6 349/5/6 351/5/6
f 351/5/6 349/5/6 352/5/6
f 350/5/6 348/5/6 353/5/6
f 353/5/6 348/5/6 354/5/6
f 355/5/6 356/5/6 357/5/6
f 357/5/6 356/5/6 358/5/6
f 355/5/6 357/5/6 359/5/6
f 358/5/6 356/5/6 360/5/6
f 355/5/6 359/5/6 361/5/6
f 361/5/6 359/5/6 362/5/6
f 360/5/6 356/5/6 363/5/6
f 363/5/6 356/5/6 364/5/6
f 365/2/6 366/2/6 369/2/6
f 369/2/6 366/2/6 370/2/6
f 367/2/6 368/2/6 371/2/6
f 371/2/6 368/2/6 372/2/6
f 373/7/6 374/7/6 375/7/6
f 375/7/6 374/7/6 376/7/6
f 377/2/6 378/2/6 379/2/6
f 379/2/6 378/2/6 380/2/6
