# MagicaVoxel @ ephtracy

# material
mtllib wall.mtl
usemtl palette

# normals
vn -1 0 0
vn 1 0 0
vn 0 0 1
vn 0 0 -1
vn 0 -1 0
vn 0 1 0

# texcoords
vt 0.912109 0.5
vt 0.923828 0.5
vt 0.962891 0.5

# verts
v -8 1 8
v -8 1 -2
v -8 1 -3
v -8 1 -8
v -8 2 8
v -8 2 -1
v -8 2 -4
v -8 2 -8
v -8 4 8
v -8 4 -1
v -8 4 -4
v -8 4 -8
v -8 5 8
v -8 5 -2
v -8 5 -3
v -8 5 -8
v -8 6 8
v -8 6 3
v -8 6 2
v -8 6 -8
v -8 7 8
v -8 7 4
v -8 7 1
v -8 7 -8
v -8 9 8
v -8 9 4
v -8 9 1
v -8 9 -8
v -8 10 8
v -8 10 3
v -8 10 2
v -8 10 -8
v -8 11 8
v -8 11 -2
v -8 11 -3
v -8 11 -8
v -8 12 8
v -8 12 -1
v -8 12 -4
v -8 12 -8
v -8 14 8
v -8 14 -1
v -8 14 -2
v -8 14 -3
v -8 14 -4
v -8 14 -8
v -8 15 8
v -8 15 -2
v -8 15 -3
v -8 15 -8
v -7 0 7
v -7 0 -7
v -7 1 7
v -7 1 -2
v -7 1 -3
v -7 1 -7
v -7 5 7
v -7 5 -2
v -7 5 -3
v -7 5 -7
v -7 6 7
v -7 6 3
v -7 6 2
v -7 6 -7
v -7 10 7
v -7 10 3
v -7 10 2
v -7 10 -7
v -7 11 7
v -7 11 -2
v -7 11 -3
v -7 11 -7
v -7 14 -2
v -7 14 -3
v -2 1 8
v -2 1 7
v -2 5 8
v -2 5 7
v -2 6 -7
v -2 6 -8
v -2 10 -7
v -2 10 -8
v -2 11 8
v -2 11 7
v -2 14 8
v -2 14 7
v -2 14 3
v -2 14 2
v -2 14 -2
v -2 15 8
v -2 15 3
v -2 15 2
v -2 15 -2
v 3 1 -7
v 3 1 -8
v 3 5 -7
v 3 5 -8
v 3 6 8
v 3 6 7
v 3 10 8
v 3 10 7
v 3 11 -7
v 3 11 -8
v 3 14 2
v 3 14 -7
v 3 14 -8
v 3 15 2
v 3 15 -8
v -3 1 8
v -3 1 7
v -3 5 8
v -3 5 7
v -3 6 -7
v -3 6 -8
v -3 10 -7
v -3 10 -8
v -3 11 8
v -3 11 7
v -3 14 8
v -3 14 7
v -3 14 -2
v -3 15 8
v -3 15 -2
v 2 1 -7
v 2 1 -8
v 2 5 -7
v 2 5 -8
v 2 6 8
v 2 6 7
v 2 10 8
v 2 10 7
v 2 11 -7
v 2 11 -8
v 2 14 2
v 2 14 -2
v 2 14 -3
v 2 14 -7
v 2 14 -8
v 2 15 2
v 2 15 -2
v 2 15 -3
v 2 15 -8
v 7 0 7
v 7 0 -7
v 7 1 7
v 7 1 3
v 7 1 2
v 7 1 -7
v 7 5 7
v 7 5 3
v 7 5 2
v 7 5 -7
v 7 6 7
v 7 6 -2
v 7 6 -3
v 7 6 -7
v 7 10 7
v 7 10 -2
v 7 10 -3
v 7 10 -7
v 7 11 7
v 7 11 3
v 7 11 2
v 7 11 -7
v 7 14 3
v 7 14 2
v 8 1 8
v 8 1 3
v 8 1 2
v 8 1 -8
v 8 2 8
v 8 2 4
v 8 2 1
v 8 2 -8
v 8 4 8
v 8 4 4
v 8 4 1
v 8 4 -8
v 8 5 8
v 8 5 3
v 8 5 2
v 8 5 -8
v 8 6 8
v 8 6 -2
v 8 6 -3
v 8 6 -8
v 8 7 8
v 8 7 -1
v 8 7 -4
v 8 7 -8
v 8 9 8
v 8 9 -1
v 8 9 -4
v 8 9 -8
v 8 10 8
v 8 10 -2
v 8 10 -3
v 8 10 -8
v 8 11 8
v 8 11 3
v 8 11 2
v 8 11 -8
v 8 12 8
v 8 12 4
v 8 12 1
v 8 12 -8
v 8 14 8
v 8 14 4
v 8 14 3
v 8 14 2
v 8 14 1
v 8 14 -8
v 8 15 8
v 8 15 3
v 8 15 2
v 8 15 -8
v -8 1 8
v -8 2 8
v -8 4 8
v -8 5 8
v -8 6 8
v -8 7 8
v -8 9 8
v -8 10 8
v -8 11 8
v -8 12 8
v -8 14 8
v -8 15 8
v -4 2 8
v -4 4 8
v -4 12 8
v -4 14 8
v -3 1 8
v -3 5 8
v -3 11 8
v -3 14 8
v -3 15 8
v -2 1 8
v -2 5 8
v -2 11 8
v -2 14 8
v -2 15 8
v -1 2 8
v -1 4 8
v -1 12 8
v -1 14 8
v 1 7 8
v 1 9 8
v 2 6 8
v 2 10 8
v 3 6 8
v 3 10 8
v 4 7 8
v 4 9 8
v 8 1 8
v 8 2 8
v 8 4 8
v 8 5 8
v 8 6 8
v 8 7 8
v 8 9 8
v 8 10 8
v 8 11 8
v 8 12 8
v 8 14 8
v 8 15 8
v -7 0 7
v -7 1 7
v -7 5 7
v -7 6 7
v -7 10 7
v -7 11 7
v -3 1 7
v -3 5 7
v -3 11 7
v -3 14 7
v -2 1 7
v -2 5 7
v -2 11 7
v -2 14 7
v 2 6 7
v 2 10 7
v 3 6 7
v 3 10 7
v 7 0 7
v 7 1 7
v 7 5 7
v 7 6 7
v 7 10 7
v 7 11 7
v -8 6 2
v -8 10 2
v -7 6 2
v -7 10 2
v -2 14 2
v -2 15 2
v 2 14 2
v 2 15 2
v 3 14 2
v 3 15 2
v 7 1 2
v 7 5 2
v 7 11 2
v 7 14 2
v 8 1 2
v 8 5 2
v 8 11 2
v 8 14 2
v 8 15 2
v -8 1 -3
v -8 5 -3
v -8 11 -3
v -8 14 -3
v -8 15 -3
v -7 1 -3
v -7 5 -3
v -7 11 -3
v -7 14 -3
v 2 14 -3
v 2 15 -3
v 7 6 -3
v 7 10 -3
v 8 6 -3
v 8 10 -3
v -8 6 3
v -8 10 3
v -7 6 3
v -7 10 3
v -2 14 3
v -2 15 3
v 7 1 3
v 7 5 3
v 7 11 3
v 7 14 3
v 8 1 3
v 8 5 3
v 8 11 3
v 8 14 3
v 8 15 3
v -8 1 -2
v -8 5 -2
v -8 11 -2
v -8 14 -2
v -8 15 -2
v -7 1 -2
v -7 5 -2
v -7 11 -2
v -7 14 -2
v -3 14 -2
v -3 15 -2
v -2 14 -2
v -2 15 -2
v 2 14 -2
v 2 15 -2
v 7 6 -2
v 7 10 -2
v 8 6 -2
v 8 10 -2
v -7 0 -7
v -7 1 -7
v -7 5 -7
v -7 6 -7
v -7 10 -7
v -7 11 -7
v -3 6 -7
v -3 10 -7
v -2 6 -7
v -2 10 -7
v 2 1 -7
v 2 5 -7
v 2 11 -7
v 2 14 -7
v 3 1 -7
v 3 5 -7
v 3 11 -7
v 3 14 -7
v 7 0 -7
v 7 1 -7
v 7 5 -7
v 7 6 -7
v 7 10 -7
v 7 11 -7
v -8 1 -8
v -8 2 -8
v -8 4 -8
v -8 5 -8
v -8 6 -8
v -8 7 -8
v -8 9 -8
v -8 10 -8
v -8 11 -8
v -8 12 -8
v -8 14 -8
v -8 15 -8
v -4 7 -8
v -4 9 -8
v -3 6 -8
v -3 10 -8
v -2 6 -8
v -2 10 -8
v -1 7 -8
v -1 9 -8
v 1 2 -8
v 1 4 -8
v 1 12 -8
v 1 14 -8
v 2 1 -8
v 2 5 -8
v 2 11 -8
v 2 14 -8
v 2 15 -8
v 3 1 -8
v 3 5 -8
v 3 11 -8
v 3 14 -8
v 3 15 -8
v 4 2 -8
v 4 4 -8
v 4 12 -8
v 4 14 -8
v 8 1 -8
v 8 2 -8
v 8 4 -8
v 8 5 -8
v 8 6 -8
v 8 7 -8
v 8 9 -8
v 8 10 -8
v 8 11 -8
v 8 12 -8
v 8 14 -8
v 8 15 -8
v -7 0 7
v 7 0 7
v -7 0 -7
v 7 0 -7
v -8 1 8
v -3 1 8
v -2 1 8
v 8 1 8
v -7 1 7
v -3 1 7
v -2 1 7
v 7 1 7
v 7 1 3
v 8 1 3
v 7 1 2
v 8 1 2
v -8 1 -2
v -7 1 -2
v -8 1 -3
v -7 1 -3
v -7 1 -7
v 2 1 -7
v 3 1 -7
v 7 1 -7
v -8 1 -8
v 2 1 -8
v 3 1 -8
v 8 1 -8
v -8 6 8
v 2 6 8
v 3 6 8
v 8 6 8
v -7 6 7
v 2 6 7
v 3 6 7
v 7 6 7
v -8 6 3
v -7 6 3
v -8 6 2
v -7 6 2
v 7 6 -2
v 8 6 -2
v 7 6 -3
v 8 6 -3
v -7 6 -7
v -3 6 -7
v -2 6 -7
v 7 6 -7
v -8 6 -8
v -3 6 -8
v -2 6 -8
v 8 6 -8
v -8 11 8
v -3 11 8
v -2 11 8
v 8 11 8
v -7 11 7
v -3 11 7
v -2 11 7
v 7 11 7
v 7 11 3
v 8 11 3
v 7 11 2
v 8 11 2
v -8 11 -2
v -7 11 -2
v -8 11 -3
v -7 11 -3
v -7 11 -7
v 2 11 -7
v 3 11 -7
v 7 11 -7
v -8 11 -8
v 2 11 -8
v 3 11 -8
v 8 11 -8
v -8 5 8
v -3 5 8
v -2 5 8
v 8 5 8
v -7 5 7
v -3 5 7
v -2 5 7
v 7 5 7
v 7 5 3
v 8 5 3
v 7 5 2
v 8 5 2
v -8 5 -2
v -7 5 -2
v -8 5 -3
v -7 5 -3
v -7 5 -7
v 2 5 -7
v 3 5 -7
v 7 5 -7
v -8 5 -8
v 2 5 -8
v 3 5 -8
v 8 5 -8
v -8 10 8
v 2 10 8
v 3 10 8
v 8 10 8
v -7 10 7
v 2 10 7
v 3 10 7
v 7 10 7
v -8 10 3
v -7 10 3
v -8 10 2
v -7 10 2
v 7 10 -2
v 8 10 -2
v 7 10 -3
v 8 10 -3
v -7 10 -7
v -3 10 -7
v -2 10 -7
v 7 10 -7
v -8 10 -8
v -3 10 -8
v -2 10 -8
v 8 10 -8
v -3 14 7
v -2 14 7
v -2 14 3
v 7 14 3
v -2 14 2
v 2 14 2
v 3 14 2
v 7 14 2
v -7 14 -2
v -3 14 -2
v -2 14 -2
v 2 14 -2
v -7 14 -3
v 2 14 -3
v 2 14 -7
v 3 14 -7
v -8 15 8
v -3 15 8
v -2 15 8
v 8 15 8
v -2 15 3
v 8 15 3
v -2 15 2
v 2 15 2
v 3 15 2
v 8 15 2
v -8 15 -2
v -3 15 -2
v -2 15 -2
v 2 15 -2
v -8 15 -3
v 2 15 -3
v -8 15 -8
v 2 15 -8
v 3 15 -8
v 8 15 -8

# faces
f 5/3/1 2/3/1 1/3/1
f 6/3/1 2/3/1 5/3/1
f 7/3/1 4/3/1 3/3/1
f 8/3/1 4/3/1 7/3/1
f 9/1/1 6/1/1 5/1/1
f 10/3/1 2/3/1 6/3/1
f 10/1/1 6/1/1 9/1/1
f 11/3/1 7/3/1 3/3/1
f 11/1/1 8/1/1 7/1/1
f 12/1/1 8/1/1 11/1/1
f 13/3/1 10/3/1 9/3/1
f 14/3/1 2/3/1 10/3/1
f 14/3/1 10/3/1 13/3/1
f 15/3/1 11/3/1 3/3/1
f 15/3/1 12/3/1 11/3/1
f 16/3/1 12/3/1 15/3/1
f 21/3/1 18/3/1 17/3/1
f 22/3/1 18/3/1 21/3/1
f 23/3/1 20/3/1 19/3/1
f 24/3/1 20/3/1 23/3/1
f 25/1/1 22/1/1 21/1/1
f 26/3/1 18/3/1 22/3/1
f 26/1/1 22/1/1 25/1/1
f 27/3/1 23/3/1 19/3/1
f 27/1/1 24/1/1 23/1/1
f 28/1/1 24/1/1 27/1/1
f 29/3/1 26/3/1 25/3/1
f 30/3/1 18/3/1 26/3/1
f 30/3/1 26/3/1 29/3/1
f 31/3/1 27/3/1 19/3/1
f 31/3/1 28/3/1 27/3/1
f 32/3/1 28/3/1 31/3/1
f 37/3/1 34/3/1 33/3/1
f 38/3/1 34/3/1 37/3/1
f 39/3/1 36/3/1 35/3/1
f 40/3/1 36/3/1 39/3/1
f 41/1/1 38/1/1 37/1/1
f 42/3/1 34/3/1 38/3/1
f 42/1/1 38/1/1 41/1/1
f 43/3/1 34/3/1 42/3/1
f 44/3/1 39/3/1 35/3/1
f 45/1/1 40/1/1 39/1/1
f 45/3/1 39/3/1 44/3/1
f 46/1/1 40/1/1 45/1/1
f 47/2/1 43/2/1 42/2/1
f 47/2/1 42/2/1 41/2/1
f 48/2/1 43/2/1 47/2/1
f 49/2/1 46/2/1 45/2/1
f 49/2/1 45/2/1 44/2/1
f 50/2/1 46/2/1 49/2/1
f 53/2/1 52/2/1 51/2/1
f 54/2/1 52/2/1 53/2/1
f 55/2/1 52/2/1 54/2/1
f 56/2/1 52/2/1 55/2/1
f 58/2/1 55/2/1 54/2/1
f 59/2/1 55/2/1 58/2/1
f 61/2/1 58/2/1 57/2/1
f 61/2/1 60/2/1 59/2/1
f 61/2/1 59/2/1 58/2/1
f 62/2/1 60/2/1 61/2/1
f 63/2/1 60/2/1 62/2/1
f 64/2/1 60/2/1 63/2/1
f 66/2/1 63/2/1 62/2/1
f 67/2/1 63/2/1 66/2/1
f 69/2/1 66/2/1 65/2/1
f 69/2/1 68/2/1 67/2/1
f 69/2/1 67/2/1 66/2/1
f 70/2/1 68/2/1 69/2/1
f 71/2/1 68/2/1 70/2/1
f 72/2/1 68/2/1 71/2/1
f 73/2/1 71/2/1 70/2/1
f 74/2/1 71/2/1 73/2/1
f 77/3/1 76/3/1 75/3/1
f 78/3/1 76/3/1 77/3/1
f 81/3/1 80/3/1 79/3/1
f 82/3/1 80/3/1 81/3/1
f 85/3/1 84/3/1 83/3/1
f 86/3/1 84/3/1 85/3/1
f 90/2/1 86/2/1 85/2/1
f 90/2/1 87/2/1 86/2/1
f 91/2/1 87/2/1 90/2/1
f 92/2/1 89/2/1 88/2/1
f 93/2/1 89/2/1 92/2/1
f 96/3/1 95/3/1 94/3/1
f 97/3/1 95/3/1 96/3/1
f 100/3/1 99/3/1 98/3/1
f 101/3/1 99/3/1 100/3/1
f 105/3/1 103/3/1 102/3/1
f 106/3/1 103/3/1 105/3/1
f 107/2/1 105/2/1 104/2/1
f 107/2/1 106/2/1 105/2/1
f 108/2/1 106/2/1 107/2/1
f 109/3/2 110/3/2 111/3/2
f 111/3/2 110/3/2 112/3/2
f 113/3/2 114/3/2 115/3/2
f 115/3/2 114/3/2 116/3/2
f 117/3/2 118/3/2 119/3/2
f 119/3/2 118/3/2 120/3/2
f 119/2/2 120/2/2 122/2/2
f 120/2/2 121/2/2 122/2/2
f 122/2/2 121/2/2 123/2/2
f 124/3/2 125/3/2 126/3/2
f 126/3/2 125/3/2 127/3/2
f 128/3/2 129/3/2 130/3/2
f 130/3/2 129/3/2 131/3/2
f 132/3/2 133/3/2 137/3/2
f 137/3/2 133/3/2 138/3/2
f 134/2/2 135/2/2 139/2/2
f 139/2/2 135/2/2 140/2/2
f 136/2/2 137/2/2 141/2/2
f 137/2/2 138/2/2 141/2/2
f 141/2/2 138/2/2 142/2/2
f 143/2/2 144/2/2 145/2/2
f 145/2/2 144/2/2 146/2/2
f 146/2/2 144/2/2 147/2/2
f 147/2/2 144/2/2 148/2/2
f 146/2/2 147/2/2 150/2/2
f 150/2/2 147/2/2 151/2/2
f 149/2/2 150/2/2 153/2/2
f 151/2/2 152/2/2 153/2/2
f 150/2/2 151/2/2 153/2/2
f 153/2/2 152/2/2 154/2/2
f 154/2/2 152/2/2 155/2/2
f 155/2/2 152/2/2 156/2/2
f 154/2/2 155/2/2 158/2/2
f 158/2/2 155/2/2 159/2/2
f 157/2/2 158/2/2 161/2/2
f 159/2/2 160/2/2 161/2/2
f 158/2/2 159/2/2 161/2/2
f 161/2/2 160/2/2 162/2/2
f 162/2/2 160/2/2 163/2/2
f 163/2/2 160/2/2 164/2/2
f 162/2/2 163/2/2 165/2/2
f 165/2/2 163/2/2 166/2/2
f 167/3/2 168/3/2 171/3/2
f 171/3/2 168/3/2 172/3/2
f 169/3/2 170/3/2 173/3/2
f 173/3/2 170/3/2 174/3/2
f 171/1/2 172/1/2 175/1/2
f 172/3/2 168/3/2 176/3/2
f 175/1/2 172/1/2 176/1/2
f 169/3/2 173/3/2 177/3/2
f 173/1/2 174/1/2 177/1/2
f 177/1/2 174/1/2 178/1/2
f 175/3/2 176/3/2 179/3/2
f 176/3/2 168/3/2 180/3/2
f 179/3/2 176/3/2 180/3/2
f 169/3/2 177/3/2 181/3/2
f 177/3/2 178/3/2 181/3/2
f 181/3/2 178/3/2 182/3/2
f 183/3/2 184/3/2 187/3/2
f 187/3/2 184/3/2 188/3/2
f 185/3/2 186/3/2 189/3/2
f 189/3/2 186/3/2 190/3/2
f 187/1/2 188/1/2 191/1/2
f 188/3/2 184/3/2 192/3/2
f 191/1/2 188/1/2 192/1/2
f 185/3/2 189/3/2 193/3/2
f 189/1/2 190/1/2 193/1/2
f 193/1/2 190/1/2 194/1/2
f 191/3/2 192/3/2 195/3/2
f 192/3/2 184/3/2 196/3/2
f 195/3/2 192/3/2 196/3/2
f 185/3/2 193/3/2 197/3/2
f 193/3/2 194/3/2 197/3/2
f 197/3/2 194/3/2 198/3/2
f 199/3/2 200/3/2 203/3/2
f 203/3/2 200/3/2 204/3/2
f 201/3/2 202/3/2 205/3/2
f 205/3/2 202/3/2 206/3/2
f 203/1/2 204/1/2 207/1/2
f 204/3/2 200/3/2 208/3/2
f 207/1/2 204/1/2 208/1/2
f 208/3/2 200/3/2 209/3/2
f 201/3/2 205/3/2 210/3/2
f 205/1/2 206/1/2 211/1/2
f 210/3/2 205/3/2 211/3/2
f 211/1/2 206/1/2 212/1/2
f 208/2/2 209/2/2 213/2/2
f 207/2/2 208/2/2 213/2/2
f 213/2/2 209/2/2 214/2/2
f 211/2/2 212/2/2 215/2/2
f 210/2/2 211/2/2 215/2/2
f 215/2/2 212/2/2 216/2/2
f 229/3/3 218/3/3 217/3/3
f 229/1/3 219/1/3 218/1/3
f 230/3/3 220/3/3 219/3/3
f 230/1/3 219/1/3 229/1/3
f 231/1/3 227/1/3 226/1/3
f 231/3/3 226/3/3 225/3/3
f 232/2/3 228/2/3 227/2/3
f 232/1/3 227/1/3 231/1/3
f 233/3/3 229/3/3 217/3/3
f 233/3/3 230/3/3 229/3/3
f 234/3/3 220/3/3 230/3/3
f 234/3/3 230/3/3 233/3/3
f 235/3/3 231/3/3 225/3/3
f 235/3/3 232/3/3 231/3/3
f 236/2/3 228/2/3 232/2/3
f 236/3/3 232/3/3 235/3/3
f 237/2/3 228/2/3 236/2/3
f 243/3/3 239/3/3 238/3/3
f 244/3/3 239/3/3 243/3/3
f 245/3/3 241/3/3 240/3/3
f 246/2/3 242/2/3 241/2/3
f 246/3/3 241/3/3 245/3/3
f 247/3/3 222/3/3 221/3/3
f 247/1/3 223/1/3 222/1/3
f 248/3/3 224/3/3 223/3/3
f 248/1/3 223/1/3 247/1/3
f 249/3/3 247/3/3 221/3/3
f 249/3/3 248/3/3 247/3/3
f 250/3/3 224/3/3 248/3/3
f 250/3/3 248/3/3 249/3/3
f 253/3/3 252/3/3 251/3/3
f 254/3/3 252/3/3 253/3/3
f 255/3/3 243/3/3 238/3/3
f 256/1/3 244/1/3 243/1/3
f 256/3/3 243/3/3 255/3/3
f 257/3/3 239/3/3 244/3/3
f 257/1/3 244/1/3 256/1/3
f 258/3/3 239/3/3 257/3/3
f 259/3/3 253/3/3 251/3/3
f 260/1/3 254/1/3 253/1/3
f 260/3/3 253/3/3 259/3/3
f 261/3/3 252/3/3 254/3/3
f 261/1/3 254/1/3 260/1/3
f 262/3/3 252/3/3 261/3/3
f 263/3/3 245/3/3 240/3/3
f 264/1/3 246/1/3 245/1/3
f 264/3/3 245/3/3 263/3/3
f 265/2/3 242/2/3 246/2/3
f 265/1/3 246/1/3 264/1/3
f 266/2/3 242/2/3 265/2/3
f 273/2/3 268/2/3 267/2/3
f 274/2/3 270/2/3 269/2/3
f 275/2/3 272/2/3 271/2/3
f 277/2/3 274/2/3 273/2/3
f 277/2/3 273/2/3 267/2/3
f 278/2/3 270/2/3 274/2/3
f 278/2/3 274/2/3 277/2/3
f 279/2/3 276/2/3 275/2/3
f 279/2/3 275/2/3 271/2/3
f 280/2/3 276/2/3 279/2/3
f 281/2/3 270/2/3 278/2/3
f 282/2/3 279/2/3 271/2/3
f 283/2/3 281/2/3 278/2/3
f 283/2/3 282/2/3 281/2/3
f 284/2/3 279/2/3 282/2/3
f 284/2/3 282/2/3 283/2/3
f 285/2/3 277/2/3 267/2/3
f 286/2/3 277/2/3 285/2/3
f 287/2/3 283/2/3 278/2/3
f 288/2/3 283/2/3 287/2/3
f 289/2/3 279/2/3 284/2/3
f 290/2/3 279/2/3 289/2/3
f 293/3/3 292/3/3 291/3/3
f 294/3/3 292/3/3 293/3/3
f 297/2/3 296/2/3 295/2/3
f 298/2/3 296/2/3 297/2/3
f 304/2/3 300/2/3 299/2/3
f 305/3/3 302/3/3 301/3/3
f 306/3/3 302/3/3 305/3/3
f 307/3/3 304/3/3 303/3/3
f 308/2/3 300/2/3 304/2/3
f 308/3/3 304/3/3 307/3/3
f 309/2/3 300/2/3 308/2/3
f 315/3/3 311/3/3 310/3/3
f 316/3/3 311/3/3 315/3/3
f 317/3/3 313/3/3 312/3/3
f 318/2/3 314/2/3 313/2/3
f 318/3/3 313/3/3 317/3/3
f 319/2/3 314/2/3 318/2/3
f 320/2/3 314/2/3 319/2/3
f 323/3/3 322/3/3 321/3/3
f 324/3/3 322/3/3 323/3/3
f 325/3/4 326/3/4 327/3/4
f 327/3/4 326/3/4 328/3/4
f 329/2/4 330/2/4 334/2/4
f 331/3/4 332/3/4 335/3/4
f 335/3/4 332/3/4 336/3/4
f 333/3/4 334/3/4 337/3/4
f 334/2/4 330/2/4 338/2/4
f 337/3/4 334/3/4 338/3/4
f 338/2/4 330/2/4 339/2/4
f 340/3/4 341/3/4 345/3/4
f 345/3/4 341/3/4 346/3/4
f 342/3/4 343/3/4 347/3/4
f 343/2/4 344/2/4 348/2/4
f 347/3/4 343/3/4 348/3/4
f 348/2/4 344/2/4 349/2/4
f 349/2/4 344/2/4 350/2/4
f 351/2/4 352/2/4 353/2/4
f 353/2/4 352/2/4 354/2/4
f 355/3/4 356/3/4 357/3/4
f 357/3/4 356/3/4 358/3/4
f 361/2/4 362/2/4 365/2/4
f 363/2/4 364/2/4 366/2/4
f 361/2/4 365/2/4 367/2/4
f 365/2/4 366/2/4 367/2/4
f 366/2/4 364/2/4 368/2/4
f 367/2/4 366/2/4 368/2/4
f 359/2/4 360/2/4 369/2/4
f 361/2/4 367/2/4 370/2/4
f 368/2/4 364/2/4 371/2/4
f 369/2/4 370/2/4 373/2/4
f 359/2/4 369/2/4 373/2/4
f 370/2/4 367/2/4 374/2/4
f 373/2/4 370/2/4 374/2/4
f 371/2/4 372/2/4 375/2/4
f 368/2/4 371/2/4 375/2/4
f 375/2/4 372/2/4 376/2/4
f 359/2/4 373/2/4 377/2/4
f 377/2/4 373/2/4 378/2/4
f 374/2/4 367/2/4 379/2/4
f 379/2/4 367/2/4 380/2/4
f 368/2/4 375/2/4 381/2/4
f 381/2/4 375/2/4 382/2/4
f 387/3/4 388/3/4 395/3/4
f 388/1/4 389/1/4 395/1/4
f 389/3/4 390/3/4 396/3/4
f 395/1/4 389/1/4 396/1/4
f 387/3/4 395/3/4 397/3/4
f 395/3/4 396/3/4 397/3/4
f 396/3/4 390/3/4 398/3/4
f 397/3/4 396/3/4 398/3/4
f 399/3/4 400/3/4 401/3/4
f 401/3/4 400/3/4 402/3/4
f 383/3/4 384/3/4 403/3/4
f 384/1/4 385/1/4 403/1/4
f 385/3/4 386/3/4 404/3/4
f 403/1/4 385/1/4 404/1/4
f 392/1/4 393/1/4 405/1/4
f 391/3/4 392/3/4 405/3/4
f 393/2/4 394/2/4 406/2/4
f 405/1/4 393/1/4 406/1/4
f 383/3/4 403/3/4 407/3/4
f 403/3/4 404/3/4 407/3/4
f 404/3/4 386/3/4 408/3/4
f 407/3/4 404/3/4 408/3/4
f 391/3/4 405/3/4 409/3/4
f 405/3/4 406/3/4 409/3/4
f 406/2/4 394/2/4 410/2/4
f 409/3/4 406/3/4 410/3/4
f 410/2/4 394/2/4 411/2/4
f 412/3/4 413/3/4 417/3/4
f 417/3/4 413/3/4 418/3/4
f 414/3/4 415/3/4 419/3/4
f 415/2/4 416/2/4 420/2/4
f 419/3/4 415/3/4 420/3/4
f 412/3/4 417/3/4 421/3/4
f 417/1/4 418/1/4 422/1/4
f 421/3/4 417/3/4 422/3/4
f 418/3/4 413/3/4 423/3/4
f 422/1/4 418/1/4 423/1/4
f 423/3/4 413/3/4 424/3/4
f 399/3/4 401/3/4 425/3/4
f 401/1/4 402/1/4 426/1/4
f 425/3/4 401/3/4 426/3/4
f 402/3/4 400/3/4 427/3/4
f 426/1/4 402/1/4 427/1/4
f 427/3/4 400/3/4 428/3/4
f 414/3/4 419/3/4 429/3/4
f 419/1/4 420/1/4 430/1/4
f 429/3/4 419/3/4 430/3/4
f 420/2/4 416/2/4 431/2/4
f 430/1/4 420/1/4 431/1/4
f 431/2/4 416/2/4 432/2/4
f 435/2/5 434/2/5 433/2/5
f 436/2/5 434/2/5 435/2/5
f 441/3/5 438/3/5 437/3/5
f 442/3/5 438/3/5 441/3/5
f 443/3/5 440/3/5 439/3/5
f 444/3/5 440/3/5 443/3/5
f 445/3/5 440/3/5 444/3/5
f 446/3/5 440/3/5 445/3/5
f 449/3/5 441/3/5 437/3/5
f 450/3/5 441/3/5 449/3/5
f 453/3/5 452/3/5 451/3/5
f 456/3/5 448/3/5 447/3/5
f 457/3/5 454/3/5 453/3/5
f 457/3/5 453/3/5 451/3/5
f 458/3/5 454/3/5 457/3/5
f 459/3/5 456/3/5 455/3/5
f 460/3/5 448/3/5 456/3/5
f 460/3/5 456/3/5 459/3/5
f 465/3/5 462/3/5 461/3/5
f 466/3/5 462/3/5 465/3/5
f 467/3/5 464/3/5 463/3/5
f 468/3/5 464/3/5 467/3/5
f 469/3/5 465/3/5 461/3/5
f 470/3/5 465/3/5 469/3/5
f 473/3/5 464/3/5 468/3/5
f 474/3/5 464/3/5 473/3/5
f 477/3/5 472/3/5 471/3/5
f 480/3/5 476/3/5 475/3/5
f 481/3/5 478/3/5 477/3/5
f 481/3/5 477/3/5 471/3/5
f 482/3/5 478/3/5 481/3/5
f 483/3/5 480/3/5 479/3/5
f 484/3/5 476/3/5 480/3/5
f 484/3/5 480/3/5 483/3/5
f 489/3/5 486/3/5 485/3/5
f 490/3/5 486/3/5 489/3/5
f 491/3/5 488/3/5 487/3/5
f 492/3/5 488/3/5 491/3/5
f 493/3/5 488/3/5 492/3/5
f 494/3/5 488/3/5 493/3/5
f 497/3/5 489/3/5 485/3/5
f 498/3/5 489/3/5 497/3/5
f 501/3/5 500/3/5 499/3/5
f 504/3/5 496/3/5 495/3/5
f 505/3/5 502/3/5 501/3/5
f 505/3/5 501/3/5 499/3/5
f 506/3/5 502/3/5 505/3/5
f 507/3/5 504/3/5 503/3/5
f 508/3/5 496/3/5 504/3/5
f 508/3/5 504/3/5 507/3/5
f 509/3/6 510/3/6 513/3/6
f 513/3/6 510/3/6 514/3/6
f 511/3/6 512/3/6 515/3/6
f 515/3/6 512/3/6 516/3/6
f 516/3/6 512/3/6 517/3/6
f 517/3/6 512/3/6 518/3/6
f 509/3/6 513/3/6 521/3/6
f 521/3/6 513/3/6 522/3/6
f 523/3/6 524/3/6 525/3/6
f 519/3/6 520/3/6 528/3/6
f 525/3/6 526/3/6 529/3/6
f 523/3/6 525/3/6 529/3/6
f 529/3/6 526/3/6 530/3/6
f 527/3/6 528/3/6 531/3/6
f 528/3/6 520/3/6 532/3/6
f 531/3/6 528/3/6 532/3/6
f 533/3/6 534/3/6 537/3/6
f 537/3/6 534/3/6 538/3/6
f 535/3/6 536/3/6 539/3/6
f 539/3/6 536/3/6 540/3/6
f 533/3/6 537/3/6 541/3/6
f 541/3/6 537/3/6 542/3/6
f 540/3/6 536/3/6 545/3/6
f 545/3/6 536/3/6 546/3/6
f 543/3/6 544/3/6 549/3/6
f 547/3/6 548/3/6 552/3/6
f 549/3/6 550/3/6 553/3/6
f 543/3/6 549/3/6 553/3/6
f 553/3/6 550/3/6 554/3/6
f 551/3/6 552/3/6 555/3/6
f 552/3/6 548/3/6 556/3/6
f 555/3/6 552/3/6 556/3/6
f 557/2/6 558/2/6 559/2/6
f 557/2/6 559/2/6 561/2/6
f 559/2/6 560/2/6 561/2/6
f 561/2/6 560/2/6 562/2/6
f 562/2/6 560/2/6 563/2/6
f 563/2/6 560/2/6 564/2/6
f 557/2/6 561/2/6 566/2/6
f 566/2/6 561/2/6 567/2/6
f 562/2/6 563/2/6 568/2/6
f 566/2/6 567/2/6 569/2/6
f 567/2/6 568/2/6 569/2/6
f 565/2/6 566/2/6 569/2/6
f 568/2/6 563/2/6 570/2/6
f 569/2/6 568/2/6 570/2/6
f 570/2/6 563/2/6 571/2/6
f 571/2/6 563/2/6 572/2/6
f 575/2/6 576/2/6 577/2/6
f 577/2/6 576/2/6 578/2/6
f 573/2/6 574/2/6 583/2/6
f 583/2/6 574/2/6 584/2/6
f 579/2/6 580/2/6 585/2/6
f 585/2/6 580/2/6 586/2/6
f 587/2/6 588/2/6 589/2/6
f 589/2/6 588/2/6 590/2/6
f 581/2/6 582/2/6 591/2/6
f 591/2/6 582/2/6 592/2/6
